<svg width="337" height="150" viewBox="0 0 337 150" fill="none" xmlns="http://www.w3.org/2000/svg">
<path d="M150 0H0V150H150V0Z" fill="#070708"/>
<path d="M150 0H0V150H150V0Z" fill="#070708"/>
<path d="M110.845 78.2885C108.143 78.2885 105.868 80.5634 105.868 83.2648C105.868 85.9662 108.001 88.0989 110.845 88.0989C113.546 88.0989 115.679 85.9662 115.679 83.2648C115.821 80.5634 113.546 78.2885 110.845 78.2885ZM110.845 93.5018C105.157 93.5018 100.465 88.952 100.465 83.2648C100.465 77.5776 105.157 73.0278 110.845 73.0278C116.532 73.0278 121.082 77.5776 121.082 83.2648C121.224 88.952 116.532 93.5018 110.845 93.5018Z" fill="#F6FAFF"/>
<path d="M73.7915 120.142H68.3886V101.659H73.7915V120.142Z" fill="#F6FAFF"/>
<path d="M81.6114 120.142H76.2085V101.659H81.6114V120.142Z" fill="#F6FAFF"/>
<path d="M98.6296 38.8044L103.89 33.5437L100.051 29.7048L94.7908 34.9655L90.9519 38.8044L97.7765 45.629L92.5159 50.8897L96.3547 54.7285L105.454 45.629L98.6296 38.8044Z" fill="#F6FAFF"/>
<path d="M38.7435 83.2175L41.3028 87.625H36.1843L38.7435 83.2175ZM38.7435 72.9805L27.3691 92.6013H50.1179L38.7435 72.9805Z" fill="#F6FAFF"/>
<path d="M62.4574 35.5337L58.6186 31.6948L52.0783 38.2351L45.538 31.6948L41.6992 35.5337L48.2394 42.074L41.6992 48.6142L45.538 52.4531L52.0783 45.9128L58.6186 52.4531L62.4574 48.6142L55.9172 42.074L62.4574 35.5337Z" fill="#F6FAFF"/>
<path d="M322.467 87.2978C323.047 87.2978 323.595 87.2334 324.11 87.1045C324.626 86.9757 325.109 86.7663 325.56 86.4763C326.43 85.9286 327.107 85.236 327.59 84.3984C328.105 83.5285 328.363 82.6426 328.363 81.7405V80.0492C327.944 80.3713 327.413 80.6291 326.768 80.8224C326.156 81.0157 325.431 81.1928 324.594 81.3539C323.402 81.5794 322.516 81.7727 321.936 81.9338C321.356 82.0949 320.841 82.3204 320.389 82.6104C320.003 82.9003 319.713 83.2386 319.52 83.6252C319.326 83.9795 319.23 84.3823 319.23 84.8333C319.23 85.6387 319.504 86.2508 320.051 86.6696C320.599 87.0884 321.404 87.2978 322.467 87.2978ZM329.716 93.0001L328.75 88.3126C327.944 89.8912 326.752 91.196 325.174 92.2269C323.595 93.2256 321.501 93.725 318.891 93.725C315.863 93.725 313.592 93.0484 312.078 91.6953C310.596 90.3423 309.855 88.5059 309.855 86.1864C309.855 84.4789 310.177 83.0775 310.821 81.9821C311.498 80.8546 312.4 79.9364 313.527 79.2277C313.914 79.0021 314.285 78.7927 314.639 78.5994C315.026 78.4061 315.412 78.2451 315.799 78.1162C316.572 77.8263 317.474 77.5846 318.505 77.3913C319.536 77.1658 320.808 76.9403 322.322 76.7148C324.449 76.4248 325.979 76.1027 326.913 75.7483C327.848 75.3939 328.315 74.7657 328.315 73.8637C328.315 73.0583 328.025 72.4139 327.445 71.9307C326.897 71.4152 325.866 71.1575 324.352 71.1575C322.838 71.1575 321.694 71.4958 320.921 72.1723C320.148 72.8488 319.729 73.8637 319.665 75.2167H310.725C310.95 71.9629 312.174 69.3534 314.397 67.3882C316.652 65.3908 319.971 64.3921 324.352 64.3921C325.898 64.3921 327.284 64.5048 328.508 64.7304C329.764 64.9559 330.844 65.2941 331.746 65.7452C333.614 66.615 334.951 67.8553 335.757 69.4661C336.562 71.077 336.965 72.9616 336.965 75.1201V93.0001H329.716Z" fill="#070708"/>
<path d="M306.603 93H297.711V55.7903H306.603V93Z" fill="#070708"/>
<path d="M292.823 93H283.931V55.7903H292.823V93Z" fill="#070708"/>
<path d="M266.02 93.725C261.477 93.725 257.982 92.5491 255.533 90.1973C253.117 87.8455 251.909 84.3339 251.909 79.6626V78.7927C251.909 77.2141 252.054 75.7644 252.344 74.4436C252.666 73.0905 253.133 71.8824 253.745 70.8192C254.937 68.693 256.596 67.0983 258.723 66.0351C260.881 64.9398 263.33 64.3921 266.068 64.3921C267.486 64.3921 268.806 64.5371 270.031 64.827C271.255 65.0847 272.399 65.4874 273.462 66.0351C275.588 67.1305 277.231 68.7574 278.391 70.9159C279.583 73.0421 280.179 75.6678 280.179 78.7927V79.6626C280.179 81.209 280.034 82.6426 279.744 83.9634C279.454 85.2521 279.019 86.4119 278.439 87.4428C277.247 89.5368 275.588 91.1154 273.462 92.1786C271.368 93.2095 268.887 93.725 266.02 93.725ZM266.068 86.138C267.679 86.138 268.968 85.5904 269.934 84.495C270.933 83.3997 271.432 81.7566 271.432 79.5659V78.7927C271.432 76.5054 270.965 74.7818 270.031 73.622C269.129 72.43 267.824 71.834 266.116 71.834C264.473 71.834 263.152 72.4139 262.154 73.5737C261.155 74.7013 260.656 76.441 260.656 78.7927V79.5659C260.656 81.7244 261.155 83.3674 262.154 84.495C263.152 85.5904 264.457 86.138 266.068 86.138Z" fill="#070708"/>
<path d="M236.402 93.7733C232.214 93.7733 228.976 92.8873 226.689 91.1154C224.402 89.3435 223.032 86.8468 222.581 83.6252H231.666C231.956 84.7527 232.52 85.6065 233.358 86.1863C234.228 86.7662 235.387 87.0562 236.837 87.0562C238.222 87.0562 239.221 86.8468 239.833 86.428C240.478 85.9769 240.8 85.3648 240.8 84.5916C240.8 84.2695 240.719 83.9956 240.558 83.7701C240.429 83.5124 240.204 83.303 239.882 83.1419C239.302 82.8198 238.512 82.5781 237.514 82.4171C236.515 82.256 235.436 82.111 234.276 81.9821C233.084 81.821 231.86 81.6116 230.603 81.3539C229.379 81.064 228.252 80.6291 227.221 80.0492C226.157 79.5015 225.304 78.7122 224.659 77.6813C224.047 76.6503 223.741 75.2973 223.741 73.622C223.741 70.8836 224.788 68.6607 226.882 66.9533C228.976 65.2136 232.005 64.3438 235.967 64.3438C240.188 64.3438 243.313 65.2136 245.342 66.9533C247.372 68.6607 248.596 70.9159 249.015 73.7187H240.365C240.172 72.72 239.688 71.979 238.915 71.4958C238.174 70.9803 237.159 70.7226 235.871 70.7226C234.518 70.7226 233.567 70.9481 233.02 71.3991C232.472 71.8501 232.198 72.4139 232.198 73.0905C232.198 73.9603 232.762 74.5402 233.889 74.8301C235.049 75.1201 236.66 75.3939 238.722 75.6516C239.946 75.8127 241.17 76.0382 242.394 76.3282C243.651 76.6181 244.811 77.053 245.874 77.6329C246.905 78.2128 247.742 79.0182 248.387 80.0492C249.031 81.0479 249.353 82.3687 249.353 84.0118C249.353 84.946 249.224 85.832 248.967 86.6696C248.741 87.5072 248.403 88.2965 247.952 89.0375C246.985 90.4872 245.536 91.647 243.603 92.5168C241.702 93.3545 239.302 93.7733 236.402 93.7733Z" fill="#070708"/>
<path d="M213.761 93.0001L207.285 82.0788L200.81 93.0001H190.613L201.873 74.6852L191.773 58.3516H201.486L207.189 67.9681L212.891 58.3516H222.701L212.408 74.6852L223.619 93.0001H213.761Z" fill="#070708"/>
</svg>
